# This file uses centimeters as units for non-parametric coordinates.

mtllib Plataform_OneTimeUse_Low.mtl
g default
v -377.000000 86.000000 100.000000
v -177.000095 86.000000 100.000000
v -377.000000 136.000000 100.000000
v -177.000095 136.000000 100.000000
v -377.000000 136.000000 -100.000000
v -177.000095 136.000000 -100.000000
v -377.000000 86.000000 -100.000000
v -177.000095 86.000000 -100.000000
v -277.000036 86.000000 100.000000
v -277.000036 136.000000 100.000000
v -277.000036 136.000000 -100.000000
v -277.000036 86.000000 -100.000000
v -177.000072 86.000000 0.000000
v -277.000036 86.000000 0.000000
v -377.000000 86.000000 0.000000
v -377.000000 136.000000 0.000000
v -277.000036 136.000000 0.000000
v -177.000072 136.000000 0.000000
v -177.000072 111.000000 100.000000
v -277.000036 111.000000 100.000000
v -377.000000 111.000000 100.000000
v -377.000000 111.000000 0.000000
v -377.000000 111.000000 -100.000000
v -277.000036 111.000000 -100.000000
v -177.000072 111.000000 -100.000000
v -177.000072 111.000000 0.000000
v -178.184773 86.000000 100.000000
v -178.184744 111.000000 100.000000
v -178.184773 136.000000 100.000000
v -178.184773 136.000000 0.000000
v -178.184773 136.000000 -100.000000
v -178.184773 111.000000 -100.000000
v -178.184773 86.000000 -100.000000
v -178.184744 86.000000 0.000000
v -375.815328 86.000000 100.000000
v -375.815298 111.000000 100.000000
v -375.815328 136.000000 100.000000
v -375.815328 136.000000 0.000000
v -375.815328 136.000000 -100.000000
v -375.815328 111.000000 -100.000000
v -375.815328 86.000000 -100.000000
v -375.815298 86.000000 0.000000
v -177.000066 134.925900 -100.000000
v -178.184773 134.925900 -100.000000
v -277.000036 134.925900 -100.000000
v -375.815328 134.925900 -100.000000
v -377.000000 134.925900 -100.000000
v -377.000000 134.925900 0.000000
v -377.000000 134.925900 100.000000
v -375.815322 134.925900 100.000000
v -277.000036 134.925900 100.000000
v -178.184773 134.925900 100.000000
v -177.000072 134.925900 100.000000
v -177.000066 134.925900 0.000000
v -177.000072 87.074100 -100.000000
v -178.184773 87.074100 -100.000000
v -277.000036 87.074100 -100.000000
v -375.815328 87.074100 -100.000000
v -377.000000 87.074100 -100.000000
v -377.000000 87.074100 0.000000
v -377.000000 87.074100 100.000000
v -375.815328 87.074100 100.000000
v -277.000036 87.074100 100.000000
v -178.184773 87.074100 100.000000
v -177.000066 87.074100 100.000000
v -177.000072 87.074100 0.000000
v -377.000000 136.000000 99.066943
v -377.000000 134.925900 99.066901
v -377.000000 111.000000 99.066943
v -377.000000 87.074100 99.066901
v -377.000000 86.000000 99.066901
v -375.815328 86.000000 99.066901
v -277.000036 86.000000 99.066901
v -178.184773 86.000000 99.066901
v -177.000072 86.000000 99.066901
v -177.000066 87.074100 99.066943
v -177.000072 111.000000 99.066901
v -177.000072 134.925900 99.066943
v -177.000072 136.000000 99.066943
v -178.184773 136.000000 99.066943
v -277.000036 136.000000 99.066943
v -375.815322 136.000000 99.066943
v -377.000000 136.000000 -99.066901
v -377.000000 134.925900 -99.066943
v -377.000000 111.000000 -99.066901
v -377.000000 87.074100 -99.066943
v -377.000000 86.000000 -99.066943
v -375.815322 86.000000 -99.066943
v -277.000036 86.000000 -99.066943
v -178.184773 86.000000 -99.066943
v -177.000072 86.000000 -99.066943
v -177.000072 87.074100 -99.066901
v -177.000072 111.000000 -99.066943
v -177.000066 134.925900 -99.066901
v -177.000072 136.000000 -99.066901
v -178.184773 136.000000 -99.066901
v -277.000036 136.000000 -99.066901
v -375.815328 136.000000 -99.066901
vt 0.000000 0.200000
vt 0.800000 0.000000
vt 0.200000 0.200000
vt 0.800000 0.200000
vt 0.200000 0.800000
vt 0.800000 0.800000
vt 0.000000 0.000000
vt 0.800000 1.000000
vt 0.000000 0.200000
vt 0.200000 0.200000
vt 1.000000 0.800000
vt 0.800000 0.800000
vt 0.000000 0.800000
vt 0.200000 0.800000
vt 0.200000 0.000000
vt 1.000000 0.200000
vt 0.200000 1.000000
vt 0.200000 0.000000
vt 0.800000 0.800000
vt 0.200000 0.800000
vt 0.800000 0.200000
vt 0.800000 0.200000
vt 0.200000 0.200000
vt 0.200000 0.200000
vt 0.500000 0.000000
vt 0.100000 0.200000
vt 0.500000 0.200000
vt 0.500000 0.200000
vt 0.500000 0.800000
vt 0.500000 0.800000
vt 0.100000 0.000000
vt 0.500000 1.000000
vt 0.200000 0.100000
vt 1.000000 0.500000
vt 0.100000 0.100000
vt 0.000000 0.500000
vt 0.000000 0.100000
vt 0.200000 0.500000
vt 0.200000 0.500000
vt 0.500000 0.500000
vt 0.800000 0.500000
vt 0.800000 0.500000
vt 0.800000 0.100000
vt 0.900000 0.200000
vt 0.500000 0.100000
vt 0.100000 0.200000
vt 0.200000 0.100000
vt 0.100000 0.500000
vt 0.100000 0.800000
vt 0.200000 0.900000
vt 0.500000 0.900000
vt 0.800000 0.900000
vt 0.900000 0.800000
vt 0.900000 0.500000
vt 0.796446 0.000000
vt 0.198815 0.200000
vt 0.796446 0.100000
vt 0.796446 0.200000
vt 0.796446 0.200000
vt 0.796446 0.500000
vt 0.796446 0.800000
vt 0.796446 0.800000
vt 0.796446 0.900000
vt 0.198815 0.000000
vt 0.796446 1.000000
vt 0.198815 0.100000
vt 0.203554 0.000000
vt 0.001185 0.200000
vt 0.203554 0.100000
vt 0.203554 0.200000
vt 0.203554 0.200000
vt 0.203554 0.500000
vt 0.203554 0.800000
vt 0.203554 0.800000
vt 0.203554 0.900000
vt 0.001185 0.000000
vt 0.203554 1.000000
vt 0.001185 0.100000
vt 0.800000 0.804296
vt 0.804296 0.800000
vt 0.796446 0.804296
vt 0.500000 0.804296
vt 0.203554 0.804296
vt 0.195704 0.800000
vt 0.200000 0.804296
vt 0.195704 0.500000
vt 0.195704 0.200000
vt 0.200000 0.195704
vt 0.203554 0.195704
vt 0.500000 0.195704
vt 0.796446 0.195704
vt 0.800000 0.195704
vt 0.804296 0.200000
vt 0.804296 0.500000
vt 0.800000 0.995704
vt 0.995704 0.800000
vt 0.796446 0.995704
vt 0.500000 0.995704
vt 0.203554 0.995704
vt 0.004296 0.800000
vt 0.200000 0.995704
vt 0.004296 0.500000
vt 0.004296 0.200000
vt 0.200000 0.004296
vt 0.203554 0.004296
vt 0.500000 0.004296
vt 0.796446 0.004296
vt 0.800000 0.004296
vt 0.995704 0.200000
vt 0.995704 0.500000
vt 0.200000 0.202799
vt 0.200000 0.202799
vt 0.195704 0.202799
vt 0.100000 0.202799
vt 0.004296 0.202799
vt 0.000000 0.202799
vt 0.000000 0.199067
vt 0.001185 0.199067
vt 0.100000 0.199067
vt 0.198815 0.199067
vt 0.200000 0.199067
vt 1.000000 0.202799
vt 0.995704 0.202799
vt 0.900000 0.202799
vt 0.804296 0.202799
vt 0.800000 0.202799
vt 0.800000 0.202799
vt 0.796446 0.202799
vt 0.500000 0.202799
vt 0.203554 0.202799
vt 0.200000 0.797201
vt 0.200000 0.797201
vt 0.195704 0.797201
vt 0.100000 0.797201
vt 0.004296 0.797201
vt 0.000000 0.797201
vt 0.000000 0.000933
vt 0.001185 0.000933
vt 0.100000 0.000933
vt 0.198815 0.000933
vt 0.200000 0.000933
vt 1.000000 0.797201
vt 0.995704 0.797201
vt 0.900000 0.797201
vt 0.804296 0.797201
vt 0.800000 0.797201
vt 0.800000 0.797201
vt 0.796446 0.797201
vt 0.500000 0.797201
vt 0.203554 0.797201
vn 0.000000 1.000000 0.000000
vn 0.000000 1.000000 0.000000
vn 0.000000 1.000000 0.000000
vn 0.000000 1.000000 0.000000
vn 0.000000 -1.000000 0.000000
vn 0.000000 -1.000000 0.000000
vn 0.000000 -1.000000 0.000000
vn 0.000000 -1.000000 0.000000
vn -1.000000 0.000000 0.000000
vn -1.000000 0.000000 0.000000
vn -1.000000 0.000000 0.000000
vn -1.000000 0.000000 0.000000
vn 0.000000 0.000000 1.000000
vn 0.000000 0.000000 1.000000
vn 0.000000 0.000000 1.000000
vn 0.000000 0.000000 1.000000
vn 1.000000 -0.000000 -0.000000
vn 1.000000 -0.000000 0.000000
vn 1.000000 -0.000000 0.000000
vn 1.000000 0.000000 -0.000000
vn 0.000000 0.000000 -1.000000
vn 0.000000 0.000000 -1.000000
vn 0.000000 0.000000 -1.000000
vn 0.000000 0.000000 -1.000000
vn 0.000000 0.000000 1.000000
vn 0.000000 0.000000 1.000000
vn 0.000000 0.000000 1.000000
vn 0.000000 0.000000 1.000000
vn 0.000000 1.000000 0.000000
vn 0.000000 1.000000 0.000000
vn 0.000000 1.000000 0.000000
vn 0.000000 1.000000 0.000000
vn 0.000000 0.000000 -1.000000
vn 0.000000 0.000000 -1.000000
vn 0.000000 0.000000 -1.000000
vn 0.000000 0.000000 -1.000000
vn 0.000000 -1.000000 0.000000
vn 0.000000 -1.000000 0.000000
vn 0.000000 -1.000000 0.000000
vn 0.000000 -1.000000 0.000000
vn 0.000000 -1.000000 0.000000
vn 0.000000 -1.000000 0.000000
vn 0.000000 -1.000000 0.000000
vn 0.000000 -1.000000 0.000000
vn 0.000000 -1.000000 0.000000
vn 0.000000 -1.000000 0.000000
vn 0.000000 -1.000000 0.000000
vn 0.000000 -1.000000 0.000000
vn -1.000000 0.000000 0.000000
vn -1.000000 0.000000 0.000000
vn -1.000000 0.000000 0.000000
vn -1.000000 0.000000 0.000000
vn 0.000000 1.000000 0.000000
vn 0.000000 1.000000 0.000000
vn 0.000000 1.000000 0.000000
vn 0.000000 1.000000 0.000000
vn 0.000000 1.000000 0.000000
vn 0.000000 1.000000 0.000000
vn 0.000000 1.000000 0.000000
vn 0.000000 1.000000 0.000000
vn 1.000000 -0.000000 -0.000000
vn 1.000000 0.000000 0.000000
vn 1.000000 0.000000 0.000000
vn 1.000000 -0.000000 0.000001
vn 0.000000 0.000000 1.000000
vn 0.000000 0.000000 1.000000
vn 0.000000 0.000000 1.000000
vn 0.000000 0.000000 1.000000
vn 0.000000 0.000000 1.000000
vn 0.000000 0.000000 1.000000
vn 0.000000 0.000000 1.000000
vn 0.000000 0.000000 1.000000
vn -1.000000 0.000000 0.000000
vn -1.000000 0.000000 0.000000
vn -1.000000 0.000000 0.000000
vn -1.000000 0.000000 0.000000
vn -1.000000 0.000000 0.000000
vn -1.000000 0.000000 0.000000
vn -1.000000 0.000000 0.000000
vn -1.000000 0.000000 0.000000
vn 0.000000 0.000000 -1.000000
vn 0.000000 0.000000 -1.000000
vn 0.000000 0.000000 -1.000000
vn 0.000000 0.000000 -1.000000
vn 0.000000 0.000000 -1.000000
vn 0.000000 0.000000 -1.000000
vn 0.000000 0.000000 -1.000000
vn 0.000000 0.000000 -1.000000
vn 1.000000 0.000003 0.000000
vn 1.000000 -0.000000 0.000000
vn 1.000000 0.000000 -0.000000
vn 1.000000 0.000006 -0.000000
vn 1.000000 0.000009 0.000013
vn 1.000000 0.000000 0.000001
vn 1.000000 0.000000 0.000000
vn 1.000000 0.000000 0.000000
vn 0.000000 0.000000 1.000000
vn 0.000000 0.000000 1.000000
vn 0.000000 0.000000 1.000000
vn 0.000000 0.000000 1.000000
vn 0.000000 1.000000 0.000000
vn 0.000000 1.000000 0.000000
vn 0.000000 1.000000 0.000000
vn 0.000000 1.000000 0.000000
vn 0.000000 0.000000 -1.000000
vn 0.000000 0.000000 -1.000000
vn 0.000000 0.000000 -1.000000
vn 0.000000 0.000000 -1.000000
vn 0.000000 -1.000000 0.000000
vn 0.000000 -1.000000 0.000000
vn 0.000000 -1.000000 0.000000
vn 0.000000 -1.000000 0.000000
vn 0.000000 0.000000 -1.000000
vn 0.000000 0.000000 -1.000000
vn 0.000000 0.000000 -1.000000
vn 0.000000 0.000000 -1.000000
vn 0.000000 0.000000 -1.000000
vn -1.000000 0.000000 0.000000
vn -1.000000 0.000000 0.000000
vn -1.000000 0.000000 0.000000
vn -1.000000 0.000000 0.000000
vn 0.000000 0.000000 1.000000
vn 0.000000 0.000000 1.000000
vn 0.000000 0.000000 1.000000
vn 0.000000 0.000000 1.000000
vn 0.000000 0.000000 1.000000
vn 1.000000 -0.000000 0.000000
vn 1.000000 -0.000009 0.000013
vn 1.000000 -0.000000 -0.000000
vn 1.000000 0.000000 -0.000000
vn -1.000000 0.000000 0.000000
vn -1.000000 0.000000 0.000000
vn -1.000000 0.000000 0.000000
vn -1.000000 0.000000 0.000000
vn -1.000000 0.000000 0.000000
vn 0.000000 -1.000000 0.000000
vn 0.000000 -1.000000 0.000000
vn 0.000000 -1.000000 0.000000
vn 0.000000 -1.000000 0.000000
vn 0.000000 -1.000000 0.000000
vn 1.000000 -0.000000 -0.000001
vn 1.000000 -0.000009 -0.000013
vn 1.000000 0.000000 0.000000
vn 1.000000 0.000000 -0.000001
vn 1.000000 0.000009 -0.000013
vn 0.000000 1.000000 0.000000
vn 0.000000 1.000000 0.000000
vn 0.000000 1.000000 0.000000
vn 0.000000 1.000000 0.000000
vn 0.000000 1.000000 0.000000
s 1
g Plataform_OneTimeUse_Low
usemtl initialShadingGroup
f 16/39/1 38/72/2 98/150/3 83/132/4
s 2
f 87/137/5 88/138/6 42/78/7 15/37/8
s 3
f 85/134/9 86/135/10 60/102/11 22/48/12
s 4
f 61/104/13 62/105/14 36/69/15 21/47/16
s 5
f 92/143/17 93/144/18 26/54/19 66/110/20
s 6
f 23/50/21 40/75/22 58/99/23 59/101/24
s 4
f 63/106/25 64/107/26 28/57/27 20/45/28
s 1
f 96/148/29 97/149/30 17/40/31 30/60/32
s 6
f 32/63/33 56/97/34 57/98/35 24/51/36
s 2
f 89/139/37 90/140/38 34/66/39 14/35/40
f 73/119/41 74/120/42 27/56/43 9/26/44
f 71/117/45 72/118/46 35/68/47 1/9/48
s 3
f 21/46/49 69/114/50 70/115/51 61/103/52
s 1
f 3/3/53 37/70/54 82/130/55 67/112/56
f 29/58/57 80/128/58 81/129/59 10/27/60
s 5
f 76/123/61 77/124/62 19/44/63 65/109/64
s 4
f 10/28/65 51/90/66 52/91/67 29/59/68
f 3/23/69 49/88/70 50/89/71 37/71/72
s 3
f 67/111/73 68/113/74 49/87/75 3/24/76
f 83/131/77 84/133/78 48/86/79 16/38/80
s 6
f 39/73/81 46/83/82 47/85/83 5/5/84
f 31/61/85 44/81/86 45/82/87 11/29/88
s 5
f 18/42/89 54/94/90 94/145/91 95/147/92
f 4/4/93 53/93/94 78/125/95 79/127/96
s 4
f 19/43/97 28/57/27 64/107/26 65/108/98
f 29/59/68 52/91/67 53/92/99 4/21/100
s 1
f 79/126/101 80/128/58 29/58/57 4/22/102
f 95/146/103 96/148/29 30/60/32 18/41/104
s 6
f 43/79/105 44/81/86 31/61/85 6/19/106
f 55/95/107 56/97/34 32/63/33 25/52/108
s 2
f 13/33/109 34/66/39 90/140/38 91/141/110
f 2/10/111 27/56/43 74/120/42 75/121/112
s 4
f 20/45/28 36/69/15 62/105/14 63/106/25
f 37/71/72 50/89/71 51/90/66 10/28/65
s 1
f 81/129/59 82/130/55 37/70/54 10/27/60
f 97/149/30 98/150/3 38/72/2 17/40/31
s 6
f 11/29/88 45/82/87 46/83/82 39/73/81
f 57/98/35 58/99/23 40/75/22 24/51/36
s 2
f 88/138/6 89/139/37 14/35/40 42/78/7
f 35/68/47 72/118/46 73/119/41 9/26/44
s 6
f 25/52/108 32/63/33 44/81/86 43/79/105
f 45/82/87 44/81/86 32/63/33 24/51/36
f 46/83/82 45/82/87 24/51/36 40/75/22
f 47/85/83 46/83/82 40/75/22 23/50/21
s 3
f 84/133/78 85/134/9 22/48/12 48/86/79
f 49/87/75 68/113/74 69/114/50 21/46/49
s 4
f 50/89/71 49/88/70 21/47/16 36/69/15
f 51/90/66 50/89/71 36/69/15 20/45/28
f 52/91/67 51/90/66 20/45/28 28/57/27
f 53/92/99 52/91/67 28/57/27 19/43/97
s 5
f 77/124/62 78/125/95 53/93/94 19/44/63
f 93/144/18 94/145/91 54/94/90 26/54/19
s 6
f 8/8/113 33/65/114 56/97/34 55/95/107
f 57/98/35 56/97/34 33/65/114 12/32/115
f 41/77/116 58/99/23 57/98/35 12/32/115
f 59/101/24 58/99/23 41/77/116 7/17/117
s 3
f 86/135/10 87/136/118 15/36/119 60/102/11
f 61/103/52 70/115/51 71/116/120 1/1/121
s 4
f 35/67/122 62/105/14 61/104/13 1/18/123
f 63/106/25 62/105/14 35/67/122 9/25/124
f 27/55/125 64/107/26 63/106/25 9/25/124
f 65/108/98 64/107/26 27/55/125 2/2/126
s 5
f 75/122/127 76/123/61 65/109/64 2/16/128
f 91/142/129 92/143/17 66/110/20 13/34/130
s 3
f 16/38/80 48/86/79 68/113/74 67/111/73
f 69/114/50 68/113/74 48/86/79 22/48/12
f 70/115/51 69/114/50 22/48/12 60/102/11
f 71/116/120 70/115/51 60/102/11 15/36/119
s 2
f 15/37/8 42/78/7 72/118/46 71/117/45
f 73/119/41 72/118/46 42/78/7 14/35/40
f 34/66/39 74/120/42 73/119/41 14/35/40
f 75/121/112 74/120/42 34/66/39 13/33/109
s 5
f 66/110/20 76/123/61 75/122/127 13/34/130
f 26/54/19 77/124/62 76/123/61 66/110/20
f 54/94/90 78/125/95 77/124/62 26/54/19
f 79/127/96 78/125/95 54/94/90 18/42/89
s 1
f 18/41/104 30/60/32 80/128/58 79/126/101
f 81/129/59 80/128/58 30/60/32 17/40/31
f 38/72/2 82/130/55 81/129/59 17/40/31
f 67/112/56 82/130/55 38/72/2 16/39/1
s 3
f 47/84/131 84/133/78 83/131/77 5/14/132
f 23/49/133 85/134/9 84/133/78 47/84/131
f 59/100/134 86/135/10 85/134/9 23/49/133
f 7/13/135 87/136/118 86/135/10 59/100/134
s 2
f 41/76/136 88/138/6 87/137/5 7/7/137
f 12/31/138 89/139/37 88/138/6 41/76/136
f 33/64/139 90/140/38 89/139/37 12/31/138
f 91/141/110 90/140/38 33/64/139 8/15/140
s 5
f 55/96/141 92/143/17 91/142/129 8/11/142
f 25/53/143 93/144/18 92/143/17 55/96/141
f 43/80/144 94/145/91 93/144/18 25/53/143
f 95/147/92 94/145/91 43/80/144 6/12/145
s 1
f 31/62/146 96/148/29 95/146/103 6/6/147
f 11/30/148 97/149/30 96/148/29 31/62/146
f 39/74/149 98/150/3 97/149/30 11/30/148
f 83/132/4 98/150/3 39/74/149 5/20/150
